# This file uses centimeters as units for non-parametric coordinates.

mtllib water.mtl
g default
v -22.526533 0.049120 5.284714
v 22.526533 0.049120 5.284714
v -22.526533 0.049120 -6.261543
v 22.526533 0.049120 -6.261543
vt 0.020072 0.811229
vt 0.979928 0.811229
vt 0.020072 0.872728
vt 0.979928 0.872728
vn 0.000000 1.000000 0.000000
vn 0.000000 1.000000 0.000000
vn 0.000000 1.000000 0.000000
vn 0.000000 1.000000 0.000000
vn 0.000000 1.000000 0.000000
vn 0.000000 1.000000 0.000000
s off
g water:pCube45
usemtl water:lambert13SG
f 1/1/1 2/2/2 3/3/3
f 3/3/4 2/2/5 4/4/6
