# This file uses centimeters as units for non-parametric coordinates.

mtllib treelarge.mtl
g default
v -0.358417 0.872809 0.306743
v -0.358417 0.030370 0.306743
v 0.619089 0.030370 0.306743
v 0.619089 0.872809 0.306743
v -0.358417 0.872809 -0.670763
v -0.358417 0.030370 -0.670763
v 0.619089 0.030370 -0.670763
v 0.619089 0.872809 -0.670763
v -0.672619 0.872809 0.620945
v 0.933292 0.872809 0.620945
v 0.933292 4.535180 0.620945
v -0.672619 4.535180 0.620945
v -0.672619 0.872809 -0.984966
v -0.672619 4.535180 -0.984966
v 0.933292 0.872809 -0.984966
v 0.933292 4.535180 -0.984966
v -0.358417 0.872809 0.306743
v -0.358417 0.030370 0.306743
v 0.619089 0.030370 0.306743
v 0.619089 0.872809 0.306743
v -0.358417 0.872809 -0.670763
v -0.358417 0.030370 -0.670763
v 0.619089 0.030370 -0.670763
v 0.619089 0.872809 -0.670763
v -0.672619 0.872809 0.620945
v 0.933292 0.872809 0.620945
v 0.933292 4.535180 0.620945
v -0.672619 4.535180 0.620945
v -0.672619 0.872809 -0.984966
v -0.672619 4.535180 -0.984966
v 0.933292 0.872809 -0.984966
v 0.933292 4.535180 -0.984966
vt 0.506119 0.281303
vt 0.506119 0.055016
vt 0.768686 0.281303
vt 0.768686 0.055016
vt 0.769352 0.528165
vt 0.769352 0.300730
vt 0.505453 0.528165
vt 0.505453 0.300730
vt 0.505453 0.528165
vt 0.505453 0.300730
vt 0.769352 0.528165
vt 0.769352 0.300730
vt 0.768686 0.281303
vt 0.768686 0.055016
vt 0.506119 0.281303
vt 0.506119 0.055016
vt 0.028728 0.073753
vt 0.417977 0.073753
vt 0.028728 0.961457
vt 0.417977 0.961457
vt 0.416587 0.072980
vt 0.028618 0.072980
vt 0.416587 0.961974
vt 0.028618 0.961974
vt 0.504678 0.936047
vt 0.574875 0.865851
vt 0.504678 0.577268
vt 0.574875 0.647465
vt 0.863457 0.577268
vt 0.793260 0.647465
vt 0.863457 0.936047
vt 0.793260 0.865851
vt 0.028618 0.072980
vt 0.416587 0.072980
vt 0.028618 0.961974
vt 0.416587 0.961974
vt 0.504678 0.577268
vt 0.863457 0.577268
vt 0.504678 0.936047
vt 0.863457 0.936047
vt 0.028728 0.961457
vt 0.417977 0.961457
vt 0.028728 0.073753
vt 0.417977 0.073753
vt 0.506119 0.281303
vt 0.506119 0.055016
vt 0.768686 0.281303
vt 0.768686 0.055016
vt 0.769352 0.528165
vt 0.769352 0.300730
vt 0.505453 0.528165
vt 0.505453 0.300730
vt 0.505453 0.528165
vt 0.505453 0.300730
vt 0.769352 0.528165
vt 0.769352 0.300730
vt 0.768686 0.281303
vt 0.768686 0.055016
vt 0.506119 0.281303
vt 0.506119 0.055016
vt 0.028728 0.073753
vt 0.417977 0.073753
vt 0.028728 0.961457
vt 0.417977 0.961457
vt 0.416587 0.072980
vt 0.028618 0.072980
vt 0.416587 0.961974
vt 0.028618 0.961974
vt 0.504678 0.936047
vt 0.574875 0.865851
vt 0.504678 0.577268
vt 0.574875 0.647465
vt 0.863457 0.577268
vt 0.793260 0.647465
vt 0.863457 0.936047
vt 0.793260 0.865851
vt 0.028618 0.072980
vt 0.416587 0.072980
vt 0.028618 0.961974
vt 0.416587 0.961974
vt 0.504678 0.577268
vt 0.863457 0.577268
vt 0.504678 0.936047
vt 0.863457 0.936047
vt 0.028728 0.961457
vt 0.417977 0.961457
vt 0.028728 0.073753
vt 0.417977 0.073753
vn 0.000000 0.000000 1.000000
vn 0.000000 0.000000 1.000000
vn 0.000000 0.000000 1.000000
vn 0.000000 0.000000 1.000000
vn 0.000000 0.000000 1.000000
vn 0.000000 0.000000 1.000000
vn -1.000000 0.000000 0.000000
vn -1.000000 0.000000 0.000000
vn -1.000000 0.000000 0.000000
vn -1.000000 0.000000 0.000000
vn -1.000000 0.000000 0.000000
vn -1.000000 0.000000 0.000000
vn 1.000000 0.000000 0.000000
vn 1.000000 0.000000 0.000000
vn 1.000000 0.000000 0.000000
vn 1.000000 0.000000 0.000000
vn 1.000000 0.000000 0.000000
vn 1.000000 0.000000 0.000000
vn 0.000000 0.000000 -1.000000
vn 0.000000 0.000000 -1.000000
vn 0.000000 0.000000 -1.000000
vn 0.000000 0.000000 -1.000000
vn 0.000000 0.000000 -1.000000
vn 0.000000 0.000000 -1.000000
vn 0.000000 0.000000 1.000000
vn 0.000000 0.000000 1.000000
vn 0.000000 0.000000 1.000000
vn 0.000000 0.000000 1.000000
vn 0.000000 0.000000 1.000000
vn 0.000000 0.000000 1.000000
vn -1.000000 0.000000 0.000000
vn -1.000000 0.000000 0.000000
vn -1.000000 0.000000 0.000000
vn -1.000000 0.000000 0.000000
vn -1.000000 0.000000 0.000000
vn -1.000000 0.000000 0.000000
vn 0.000000 -1.000000 0.000000
vn 0.000000 -1.000000 0.000000
vn 0.000000 -1.000000 0.000000
vn 0.000000 -1.000000 0.000000
vn 0.000000 -1.000000 0.000000
vn 0.000000 -1.000000 0.000000
vn 0.000000 -1.000000 0.000000
vn 0.000000 -1.000000 0.000000
vn 0.000000 -1.000000 0.000000
vn 0.000000 -1.000000 0.000000
vn 0.000000 -1.000000 0.000000
vn 0.000000 -1.000000 0.000000
vn 0.000000 -1.000000 0.000000
vn 0.000000 -1.000000 0.000000
vn 0.000000 -1.000000 0.000000
vn 0.000000 -1.000000 0.000000
vn 0.000000 -1.000000 0.000000
vn 0.000000 -1.000000 0.000000
vn 0.000000 -1.000000 0.000000
vn 0.000000 -1.000000 0.000000
vn 0.000000 -1.000000 0.000000
vn 0.000000 -1.000000 0.000000
vn 0.000000 -1.000000 0.000000
vn 0.000000 -1.000000 0.000000
vn 1.000000 0.000000 0.000000
vn 1.000000 0.000000 0.000000
vn 1.000000 0.000000 0.000000
vn 1.000000 0.000000 0.000000
vn 1.000000 0.000000 0.000000
vn 1.000000 0.000000 0.000000
vn 0.000000 1.000000 0.000000
vn 0.000000 1.000000 0.000000
vn 0.000000 1.000000 0.000000
vn 0.000000 1.000000 0.000000
vn 0.000000 1.000000 0.000000
vn 0.000000 1.000000 0.000000
vn 0.000000 0.000000 -1.000000
vn 0.000000 0.000000 -1.000000
vn 0.000000 0.000000 -1.000000
vn 0.000000 0.000000 -1.000000
vn 0.000000 0.000000 -1.000000
vn 0.000000 0.000000 -1.000000
vn 0.000000 0.000000 1.000000
vn 0.000000 0.000000 1.000000
vn 0.000000 0.000000 1.000000
vn 0.000000 0.000000 1.000000
vn 0.000000 0.000000 1.000000
vn 0.000000 0.000000 1.000000
vn -1.000000 0.000000 0.000000
vn -1.000000 0.000000 0.000000
vn -1.000000 0.000000 0.000000
vn -1.000000 0.000000 0.000000
vn -1.000000 0.000000 0.000000
vn -1.000000 0.000000 0.000000
vn 1.000000 0.000000 0.000000
vn 1.000000 0.000000 0.000000
vn 1.000000 0.000000 0.000000
vn 1.000000 0.000000 0.000000
vn 1.000000 0.000000 0.000000
vn 1.000000 0.000000 0.000000
vn 0.000000 0.000000 -1.000000
vn 0.000000 0.000000 -1.000000
vn 0.000000 0.000000 -1.000000
vn 0.000000 0.000000 -1.000000
vn 0.000000 0.000000 -1.000000
vn 0.000000 0.000000 -1.000000
vn 0.000000 0.000000 1.000000
vn 0.000000 0.000000 1.000000
vn 0.000000 0.000000 1.000000
vn 0.000000 0.000000 1.000000
vn 0.000000 0.000000 1.000000
vn 0.000000 0.000000 1.000000
vn -1.000000 0.000000 0.000000
vn -1.000000 0.000000 0.000000
vn -1.000000 0.000000 0.000000
vn -1.000000 0.000000 0.000000
vn -1.000000 0.000000 0.000000
vn -1.000000 0.000000 0.000000
vn 0.000000 -1.000000 0.000000
vn 0.000000 -1.000000 0.000000
vn 0.000000 -1.000000 0.000000
vn 0.000000 -1.000000 0.000000
vn 0.000000 -1.000000 0.000000
vn 0.000000 -1.000000 0.000000
vn 0.000000 -1.000000 0.000000
vn 0.000000 -1.000000 0.000000
vn 0.000000 -1.000000 0.000000
vn 0.000000 -1.000000 0.000000
vn 0.000000 -1.000000 0.000000
vn 0.000000 -1.000000 0.000000
vn 0.000000 -1.000000 0.000000
vn 0.000000 -1.000000 0.000000
vn 0.000000 -1.000000 0.000000
vn 0.000000 -1.000000 0.000000
vn 0.000000 -1.000000 0.000000
vn 0.000000 -1.000000 0.000000
vn 0.000000 -1.000000 0.000000
vn 0.000000 -1.000000 0.000000
vn 0.000000 -1.000000 0.000000
vn 0.000000 -1.000000 0.000000
vn 0.000000 -1.000000 0.000000
vn 0.000000 -1.000000 0.000000
vn 1.000000 0.000000 0.000000
vn 1.000000 0.000000 0.000000
vn 1.000000 0.000000 0.000000
vn 1.000000 0.000000 0.000000
vn 1.000000 0.000000 0.000000
vn 1.000000 0.000000 0.000000
vn 0.000000 1.000000 0.000000
vn 0.000000 1.000000 0.000000
vn 0.000000 1.000000 0.000000
vn 0.000000 1.000000 0.000000
vn 0.000000 1.000000 0.000000
vn 0.000000 1.000000 0.000000
vn 0.000000 0.000000 -1.000000
vn 0.000000 0.000000 -1.000000
vn 0.000000 0.000000 -1.000000
vn 0.000000 0.000000 -1.000000
vn 0.000000 0.000000 -1.000000
vn 0.000000 0.000000 -1.000000
s off
g treelarge:pCube77
usemtl treelarge:lambert17SG
f 1/1/1 2/2/2 4/3/3
f 4/3/4 2/2/5 3/4/6
f 5/5/7 6/6/8 1/7/9
f 1/7/10 6/6/11 2/8/12
f 4/9/13 3/10/14 8/11/15
f 8/11/16 3/10/17 7/12/18
f 8/13/19 7/14/20 5/15/21
f 5/15/22 7/14/23 6/16/24
f 9/17/25 10/18/26 12/19/27
f 12/19/28 10/18/29 11/20/30
f 13/21/31 9/22/32 14/23/33
f 14/23/34 9/22/35 12/24/36
f 13/25/37 5/26/38 9/27/39
f 5/26/40 1/28/41 9/27/42
f 10/29/43 9/27/44 4/30/45
f 1/28/46 4/30/47 9/27/48
f 13/25/49 15/31/50 5/26/51
f 5/26/52 15/31/53 8/32/54
f 15/31/55 10/29/56 8/32/57
f 4/30/58 8/32/59 10/29/60
f 10/33/61 15/34/62 11/35/63
f 11/35/64 15/34/65 16/36/66
f 12/37/67 11/38/68 14/39/69
f 14/39/70 11/38/71 16/40/72
f 14/41/73 16/42/74 13/43/75
f 13/43/76 16/42/77 15/44/78
f 17/45/79 18/46/80 20/47/81
f 20/47/82 18/46/83 19/48/84
f 21/49/85 22/50/86 17/51/87
f 17/51/88 22/50/89 18/52/90
f 20/53/91 19/54/92 24/55/93
f 24/55/94 19/54/95 23/56/96
f 24/57/97 23/58/98 21/59/99
f 21/59/100 23/58/101 22/60/102
f 25/61/103 26/62/104 28/63/105
f 28/63/106 26/62/107 27/64/108
f 29/65/109 25/66/110 30/67/111
f 30/67/112 25/66/113 28/68/114
f 29/69/115 21/70/116 25/71/117
f 21/70/118 17/72/119 25/71/120
f 26/73/121 25/71/122 20/74/123
f 17/72/124 20/74/125 25/71/126
f 29/69/127 31/75/128 21/70/129
f 21/70/130 31/75/131 24/76/132
f 31/75/133 26/73/134 24/76/135
f 20/74/136 24/76/137 26/73/138
f 26/77/139 31/78/140 27/79/141
f 27/79/142 31/78/143 32/80/144
f 28/81/145 27/82/146 30/83/147
f 30/83/148 27/82/149 32/84/150
f 30/85/151 32/86/152 29/87/153
f 29/87/154 32/86/155 31/88/156
