# This file uses centimeters as units for non-parametric coordinates.

mtllib log.mtl
g default
v -4.175727 -0.087844 32.440353
v 4.158197 -0.087844 32.440353
v -4.175727 0.835510 32.440353
v 4.158197 0.835510 32.440353
v -4.175727 0.835510 30.453522
v 4.158197 0.835510 30.453522
v -4.175727 -0.087844 30.453522
v 4.158197 -0.087844 30.453522
v 4.158197 -0.087843 30.673128
v 4.158197 -0.087843 32.220741
v 4.158197 0.735758 30.673128
v 4.158197 0.735758 32.220741
v -4.175727 -0.087843 30.673128
v -4.175727 -0.087843 32.220741
v -4.175727 0.735758 32.220741
v -4.175727 0.735758 30.673128
v 2.098278 -0.087843 30.673128
v 2.098278 -0.087843 32.220741
v 2.098278 0.735758 30.673128
v 2.098278 0.735758 32.220741
v -2.115807 -0.087843 30.673128
v -2.115807 -0.087843 32.220741
v -2.115807 0.735758 32.220741
v -2.115807 0.735758 30.673128
v -4.175727 -0.087844 32.440353
v 4.158197 -0.087844 32.440353
v -4.175727 0.835510 32.440353
v 4.158197 0.835510 32.440353
v -4.175727 0.835510 30.453522
v 4.158197 0.835510 30.453522
v -4.175727 -0.087844 30.453522
v 4.158197 -0.087844 30.453522
v 4.158197 -0.087843 30.673128
v 4.158197 -0.087843 32.220741
v 4.158197 0.735758 30.673128
v 4.158197 0.735758 32.220741
v -4.175727 -0.087843 30.673128
v -4.175727 -0.087843 32.220741
v -4.175727 0.735758 32.220741
v -4.175727 0.735758 30.673128
v 2.098278 -0.087843 30.673128
v 2.098278 -0.087843 32.220741
v 2.098278 0.735758 30.673128
v 2.098278 0.735758 32.220741
v -2.115807 -0.087843 30.673128
v -2.115807 -0.087843 32.220741
v -2.115807 0.735758 32.220741
v -2.115807 0.735758 30.673128
vt 0.972087 0.486112
vt 0.022297 0.485108
vt 0.975595 0.306619
vt 0.025805 0.305616
vt 0.033688 0.750770
vt 0.964401 0.750770
vt 0.033688 0.971618
vt 0.964401 0.971618
vt 0.974717 0.722510
vt 0.027302 0.722309
vt 0.970810 0.531128
vt 0.023396 0.530927
vt 0.414389 0.230395
vt 0.377960 0.210400
vt 0.414389 0.045311
vt 0.377960 0.045311
vt 0.084814 0.230395
vt 0.121243 0.210400
vt 0.084814 0.045311
vt 0.121243 0.045311
vt 0.084814 0.230395
vt 0.121243 0.210400
vt 0.084814 0.045311
vt 0.121243 0.045311
vt 0.414389 0.230395
vt 0.377960 0.210400
vt 0.414389 0.045311
vt 0.377960 0.045311
vt 0.963388 0.118746
vt 0.963388 0.219042
vt 0.755797 0.118746
vt 0.755797 0.219042
vt 0.963388 0.219042
vt 0.963388 0.118746
vt 0.755797 0.219042
vt 0.755797 0.118746
vt 0.516715 0.120816
vt 0.516715 0.221111
vt 0.724306 0.120816
vt 0.724306 0.221111
vt 0.516715 0.221111
vt 0.516715 0.120816
vt 0.724306 0.221111
vt 0.724306 0.120816
vt 0.972087 0.486112
vt 0.022297 0.485108
vt 0.975595 0.306619
vt 0.025805 0.305616
vt 0.033688 0.750770
vt 0.964401 0.750770
vt 0.033688 0.971618
vt 0.964401 0.971618
vt 0.974717 0.722510
vt 0.027302 0.722309
vt 0.970810 0.531128
vt 0.023396 0.530927
vt 0.414389 0.230395
vt 0.377960 0.210400
vt 0.414389 0.045311
vt 0.377960 0.045311
vt 0.084814 0.230395
vt 0.121243 0.210400
vt 0.084814 0.045311
vt 0.121243 0.045311
vt 0.084814 0.230395
vt 0.121243 0.210400
vt 0.084814 0.045311
vt 0.121243 0.045311
vt 0.414389 0.230395
vt 0.377960 0.210400
vt 0.414389 0.045311
vt 0.377960 0.045311
vt 0.963388 0.118746
vt 0.963388 0.219042
vt 0.755797 0.118746
vt 0.755797 0.219042
vt 0.963388 0.219042
vt 0.963388 0.118746
vt 0.755797 0.219042
vt 0.755797 0.118746
vt 0.516715 0.120816
vt 0.516715 0.221111
vt 0.724306 0.120816
vt 0.724306 0.221111
vt 0.516715 0.221111
vt 0.516715 0.120816
vt 0.724306 0.221111
vt 0.724306 0.120816
vn 0.000000 0.000000 1.000000
vn 0.000000 0.000000 1.000000
vn 0.000000 0.000000 1.000000
vn 0.000000 0.000000 1.000000
vn 0.000000 0.000000 1.000000
vn 0.000000 0.000000 1.000000
vn 0.000000 1.000000 0.000000
vn 0.000000 1.000000 0.000000
vn 0.000000 1.000000 0.000000
vn 0.000000 1.000000 0.000000
vn 0.000000 1.000000 0.000000
vn 0.000000 1.000000 0.000000
vn 0.000000 0.000000 -1.000000
vn 0.000000 0.000000 -1.000000
vn 0.000000 0.000000 -1.000000
vn 0.000000 0.000000 -1.000000
vn 0.000000 0.000000 -1.000000
vn 0.000000 0.000000 -1.000000
vn 1.000000 0.000001 0.000000
vn 1.000000 0.000001 0.000000
vn 1.000000 0.000000 0.000000
vn 1.000000 0.000000 0.000000
vn 1.000000 0.000001 0.000000
vn 1.000000 0.000000 0.000000
vn 1.000000 0.000001 0.000000
vn 1.000000 -0.000002 0.000000
vn 1.000000 0.000001 0.000000
vn 1.000000 0.000001 0.000000
vn 1.000000 -0.000002 0.000000
vn 1.000000 -0.000003 0.000000
vn 1.000000 -0.000002 0.000000
vn 1.000000 0.000000 0.000000
vn 1.000000 -0.000003 0.000000
vn 1.000000 -0.000003 0.000000
vn 1.000000 0.000000 0.000000
vn 1.000000 0.000000 0.000000
vn -1.000000 0.000001 0.000000
vn -1.000000 0.000001 0.000000
vn -1.000000 0.000000 0.000000
vn -1.000000 0.000000 0.000000
vn -1.000000 0.000001 0.000000
vn -1.000000 0.000000 0.000000
vn -1.000000 0.000001 0.000000
vn -1.000000 -0.000002 0.000000
vn -1.000000 0.000001 0.000000
vn -1.000000 0.000001 0.000000
vn -1.000000 -0.000002 0.000000
vn -1.000000 -0.000003 0.000000
vn -1.000000 -0.000002 0.000000
vn -1.000000 0.000000 0.000000
vn -1.000000 -0.000003 0.000000
vn -1.000000 -0.000003 0.000000
vn -1.000000 0.000000 0.000000
vn -1.000000 0.000000 0.000000
vn 0.000000 0.000000 1.000000
vn 0.000000 0.000000 1.000000
vn 0.000000 0.000000 1.000000
vn 0.000000 0.000000 1.000000
vn 0.000000 0.000000 1.000000
vn 0.000000 0.000000 1.000000
vn 0.000000 -1.000000 0.000000
vn 0.000000 -1.000000 0.000000
vn 0.000000 -1.000000 0.000000
vn 0.000000 -1.000000 0.000000
vn 0.000000 -1.000000 0.000000
vn 0.000000 -1.000000 0.000000
vn 0.000000 0.000000 -1.000000
vn 0.000000 0.000000 -1.000000
vn 0.000000 0.000000 -1.000000
vn 0.000000 0.000000 -1.000000
vn 0.000000 0.000000 -1.000000
vn 0.000000 0.000000 -1.000000
vn 0.000000 0.000000 -1.000000
vn 0.000000 0.000000 -1.000000
vn 0.000000 0.000000 -1.000000
vn 0.000000 0.000000 -1.000000
vn 0.000000 0.000000 -1.000000
vn 0.000000 0.000000 -1.000000
vn 0.000000 -1.000000 0.000000
vn 0.000000 -1.000000 0.000000
vn 0.000000 -1.000000 0.000000
vn 0.000000 -1.000000 0.000000
vn 0.000000 -1.000000 0.000000
vn 0.000000 -1.000000 0.000000
vn 0.000000 0.000000 1.000000
vn 0.000000 0.000000 1.000000
vn 0.000000 0.000000 1.000000
vn 0.000000 0.000000 1.000000
vn 0.000000 0.000000 1.000000
vn 0.000000 0.000000 1.000000
vn 0.000000 0.000000 1.000000
vn 0.000000 0.000000 1.000000
vn 0.000000 0.000000 1.000000
vn 0.000000 0.000000 1.000000
vn 0.000000 0.000000 1.000000
vn 0.000000 0.000000 1.000000
vn 0.000000 1.000000 0.000000
vn 0.000000 1.000000 0.000000
vn 0.000000 1.000000 0.000000
vn 0.000000 1.000000 0.000000
vn 0.000000 1.000000 0.000000
vn 0.000000 1.000000 0.000000
vn 0.000000 0.000000 -1.000000
vn 0.000000 0.000000 -1.000000
vn 0.000000 0.000000 -1.000000
vn 0.000000 0.000000 -1.000000
vn 0.000000 0.000000 -1.000000
vn 0.000000 0.000000 -1.000000
vn 1.000000 0.000001 0.000000
vn 1.000000 0.000001 0.000000
vn 1.000000 0.000000 0.000000
vn 1.000000 0.000000 0.000000
vn 1.000000 0.000001 0.000000
vn 1.000000 0.000000 0.000000
vn 1.000000 0.000001 0.000000
vn 1.000000 -0.000002 0.000000
vn 1.000000 0.000001 0.000000
vn 1.000000 0.000001 0.000000
vn 1.000000 -0.000002 0.000000
vn 1.000000 -0.000003 0.000000
vn 1.000000 -0.000002 0.000000
vn 1.000000 0.000000 0.000000
vn 1.000000 -0.000003 0.000000
vn 1.000000 -0.000003 0.000000
vn 1.000000 0.000000 0.000000
vn 1.000000 0.000000 0.000000
vn -1.000000 0.000001 0.000000
vn -1.000000 0.000001 0.000000
vn -1.000000 0.000000 0.000000
vn -1.000000 0.000000 0.000000
vn -1.000000 0.000001 0.000000
vn -1.000000 0.000000 0.000000
vn -1.000000 0.000001 0.000000
vn -1.000000 -0.000002 0.000000
vn -1.000000 0.000001 0.000000
vn -1.000000 0.000001 0.000000
vn -1.000000 -0.000002 0.000000
vn -1.000000 -0.000003 0.000000
vn -1.000000 -0.000002 0.000000
vn -1.000000 0.000000 0.000000
vn -1.000000 -0.000003 0.000000
vn -1.000000 -0.000003 0.000000
vn -1.000000 0.000000 0.000000
vn -1.000000 0.000000 0.000000
vn 0.000000 0.000000 1.000000
vn 0.000000 0.000000 1.000000
vn 0.000000 0.000000 1.000000
vn 0.000000 0.000000 1.000000
vn 0.000000 0.000000 1.000000
vn 0.000000 0.000000 1.000000
vn 0.000000 -1.000000 0.000000
vn 0.000000 -1.000000 0.000000
vn 0.000000 -1.000000 0.000000
vn 0.000000 -1.000000 0.000000
vn 0.000000 -1.000000 0.000000
vn 0.000000 -1.000000 0.000000
vn 0.000000 0.000000 -1.000000
vn 0.000000 0.000000 -1.000000
vn 0.000000 0.000000 -1.000000
vn 0.000000 0.000000 -1.000000
vn 0.000000 0.000000 -1.000000
vn 0.000000 0.000000 -1.000000
vn 0.000000 0.000000 -1.000000
vn 0.000000 0.000000 -1.000000
vn 0.000000 0.000000 -1.000000
vn 0.000000 0.000000 -1.000000
vn 0.000000 0.000000 -1.000000
vn 0.000000 0.000000 -1.000000
vn 0.000000 -1.000000 0.000000
vn 0.000000 -1.000000 0.000000
vn 0.000000 -1.000000 0.000000
vn 0.000000 -1.000000 0.000000
vn 0.000000 -1.000000 0.000000
vn 0.000000 -1.000000 0.000000
vn 0.000000 0.000000 1.000000
vn 0.000000 0.000000 1.000000
vn 0.000000 0.000000 1.000000
vn 0.000000 0.000000 1.000000
vn 0.000000 0.000000 1.000000
vn 0.000000 0.000000 1.000000
s off
g log:pCube53
usemtl log:lambert14SG
f 1/1/1 2/2/2 3/3/3
f 3/3/4 2/2/5 4/4/6
f 3/5/7 4/6/8 5/7/9
f 5/7/10 4/6/11 6/8/12
f 5/9/13 6/10/14 7/11/15
f 7/11/16 6/10/17 8/12/18
f 6/13/19 11/14/20 8/15/21
f 8/15/22 11/14/23 9/16/24
f 6/13/25 4/17/26 11/14/27
f 11/14/28 4/17/29 12/18/30
f 4/17/31 2/19/32 12/18/33
f 12/18/34 2/19/35 10/20/36
f 3/21/37 15/22/38 1/23/39
f 1/23/40 15/22/41 14/24/42
f 3/21/43 5/25/44 15/22/45
f 15/22/46 5/25/47 16/26/48
f 5/25/49 7/27/50 16/26/51
f 16/26/52 7/27/53 13/28/54
f 9/29/55 11/30/56 17/31/57
f 17/31/58 11/30/59 19/32/60
f 11//61 12//62 19//63
f 19//64 12//65 20//66
f 12/33/67 10/34/68 20/35/69
f 20/35/70 10/34/71 18/36/72
f 14/37/73 15/38/74 22/39/75
f 22/39/76 15/38/77 23/40/78
f 15//79 16//80 23//81
f 23//82 16//83 24//84
f 16/41/85 13/42/86 24/43/87
f 24/43/88 13/42/89 21/44/90
f 25/45/91 26/46/92 27/47/93
f 27/47/94 26/46/95 28/48/96
f 27/49/97 28/50/98 29/51/99
f 29/51/100 28/50/101 30/52/102
f 29/53/103 30/54/104 31/55/105
f 31/55/106 30/54/107 32/56/108
f 30/57/109 35/58/110 32/59/111
f 32/59/112 35/58/113 33/60/114
f 30/57/115 28/61/116 35/58/117
f 35/58/118 28/61/119 36/62/120
f 28/61/121 26/63/122 36/62/123
f 36/62/124 26/63/125 34/64/126
f 27/65/127 39/66/128 25/67/129
f 25/67/130 39/66/131 38/68/132
f 27/65/133 29/69/134 39/66/135
f 39/66/136 29/69/137 40/70/138
f 29/69/139 31/71/140 40/70/141
f 40/70/142 31/71/143 37/72/144
f 33/73/145 35/74/146 41/75/147
f 41/75/148 35/74/149 43/76/150
f 35//151 36//152 43//153
f 43//154 36//155 44//156
f 36/77/157 34/78/158 44/79/159
f 44/79/160 34/78/161 42/80/162
f 38/81/163 39/82/164 46/83/165
f 46/83/166 39/82/167 47/84/168
f 39//169 40//170 47//171
f 47//172 40//173 48//174
f 40/85/175 37/86/176 48/87/177
f 48/87/178 37/86/179 45/88/180
